<svg width="72" height="70" viewBox="0 0 72 70" fill="none" xmlns="http://www.w3.org/2000/svg">
<path d="M48.0294 47.7799H46.9785V49.3606H48.0294C48.5975 49.3606 49.0377 49.0616 49.0377 48.5632C49.0377 48.0648 48.6543 47.7799 48.0294 47.7799Z" fill="#5D328C"/>
<path d="M41.61 49.859H43.1723L42.3912 47.9936L41.61 49.859Z" fill="#5D328C"/>
<path d="M45.3736 29.1538C44.5357 29.1538 43.8824 29.8658 43.4279 31.3041C42.9971 32.5998 42.7671 33.9541 42.7462 35.3198C43.785 35.179 44.7407 34.6746 45.4446 33.8958C46.1304 33.0771 46.4852 32.0304 46.4388 30.9623C46.4388 29.7566 46.0837 29.1538 45.3736 29.1538Z" fill="#5D328C"/>
<path d="M37.7045 47.7799H36.8098V49.5315H37.7045C37.8333 49.5453 37.9636 49.5322 38.0871 49.493C38.2106 49.4538 38.3247 49.3893 38.4221 49.3037C38.5195 49.218 38.5982 49.1131 38.6531 48.9954C38.708 48.8778 38.738 48.75 38.7412 48.6201C38.7128 48.1075 38.3152 47.7799 37.7045 47.7799Z" fill="#5D328C"/>
<path d="M69.8154 21.9059C62.9984 4.03449 42.3484 -4.65202 23.6725 2.51078C4.99662 9.67357 -4.61828 29.9373 2.18457 47.8087C8.98743 65.6801 29.6516 74.3666 48.3275 67.2038C67.0034 60.041 76.6183 39.763 69.8154 21.9059ZM16.4862 42.5968C14.902 42.5914 13.3532 42.1265 12.0267 41.2582C11.2969 40.794 10.696 40.1523 10.2798 39.3928C9.81404 38.5481 9.57887 37.5951 9.59812 36.6302C9.56546 35.7302 9.72321 34.8334 10.061 33.9989C10.3988 33.1644 10.909 32.4111 11.558 31.7885C12.8437 30.5496 14.5115 29.7863 16.2873 29.624C15.1474 29.3443 14.1119 28.7411 13.3049 27.8867C12.5469 27.018 12.1459 25.8933 12.1829 24.7396C12.1566 23.8525 12.3489 22.9725 12.7428 22.1777C13.1367 21.3828 13.72 20.6976 14.4411 20.1828C15.924 19.0713 17.7309 18.4807 19.5823 18.5025C21.273 18.4383 22.9458 18.8688 24.3968 19.7413C24.9867 20.0726 25.4771 20.5566 25.8168 21.1427C26.1566 21.7288 26.3332 22.3957 26.3283 23.0736C26.3319 23.5588 26.2501 24.0408 26.0869 24.4976C25.974 24.8565 25.8012 25.1936 25.5756 25.4944L25.3341 25.8361C24.5398 25.8208 23.7513 25.6963 22.9908 25.4659C22.2969 25.3039 21.6502 24.9822 21.1019 24.5261L21.5138 21.0942C21.038 20.7112 20.4306 20.5321 19.8237 20.5958C19.4311 20.6002 19.0479 20.7163 18.7185 20.9306C18.3892 21.1449 18.1272 21.4485 17.9632 21.8062C17.4923 22.6797 17.2573 23.6615 17.2815 24.6542C17.243 25.4591 17.3686 26.2635 17.6508 27.0181C17.8659 27.521 18.2209 27.9511 18.6733 28.257C19.4182 28.7176 20.2415 29.0363 21.1019 29.1968L20.8463 31.0338C19.3358 31.0062 17.8634 31.51 16.685 32.4578C16.1171 32.9013 15.6616 33.4729 15.3556 34.1261C15.0496 34.7794 14.9017 35.4958 14.9239 36.2172C14.909 36.6633 14.9844 37.1078 15.1455 37.5238C15.3066 37.9399 15.5501 38.3189 15.8613 38.638C16.1858 38.9546 16.5706 39.2022 16.9928 39.3661C17.415 39.5301 17.8658 39.6069 18.3183 39.5921C20.47 39.4364 22.4746 38.4392 23.8997 36.8153L25.2348 38.0542C24.2101 39.4212 22.8916 40.5393 21.3771 41.3257C19.8626 42.1121 18.191 42.5465 16.4862 42.5968ZM32.9181 40.5462C31.7792 41.7791 30.2037 42.5153 28.5296 42.5968C28.13 42.6235 27.7295 42.5593 27.3581 42.4088C26.9867 42.2584 26.6541 42.0257 26.3851 41.7281C25.8631 41.0874 25.5951 40.2762 25.6324 39.4497C25.6324 38.4956 25.6324 37.2283 25.8454 35.6191C26.0585 34.01 26.0727 32.4293 26.0727 30.8487C26.046 30.4019 25.9146 29.9677 25.6892 29.5813C25.4761 29.1623 25.2139 28.7703 24.9081 28.4136L25.0075 28.0149C26.0482 27.6436 27.1413 27.4417 28.2456 27.4168C29.0169 27.3599 29.7843 27.5711 30.4185 28.0149C30.699 28.3548 30.9067 28.7489 31.0289 29.1727C31.151 29.5964 31.185 30.0409 31.1287 30.4784C31.0324 31.8585 30.833 33.2294 30.5321 34.5796C30.2564 35.8144 30.0572 37.0652 29.9357 38.3248C29.9357 39.2219 30.1061 39.6633 30.4612 39.6633C31.2991 39.6633 32.2364 39.0368 33.3016 37.7836C34.1256 36.9081 34.6739 35.8085 34.878 34.6223L32.6199 32.0876C32.6895 31.1833 32.9254 30.2998 33.3158 29.4816C33.5682 28.8751 33.9292 28.3201 34.381 27.844L34.8496 27.4168C35.243 27.3877 35.6381 27.441 36.0098 27.5734C36.3814 27.7058 36.7215 27.9143 37.0083 28.1858C37.4809 28.6628 37.7464 29.3077 37.7469 29.98C37.7056 31.9119 37.2604 33.8136 36.4403 35.5622C35.6128 37.4443 34.4148 39.1395 32.9181 40.5462ZM37.6049 50.2722H36.8095V51.625H36V47.0255H37.7185C37.9448 46.9974 38.1745 47.0176 38.3925 47.0847C38.6105 47.1517 38.8119 47.2643 38.9836 47.4148C39.1552 47.5654 39.2931 47.7507 39.3884 47.9584C39.4837 48.1662 39.5341 48.3917 39.5363 48.6203C39.5363 49.6172 38.7126 50.2865 37.6049 50.2865V50.2722ZM43.9249 51.625L43.4845 50.5998H41.2974L40.8713 51.625H40.005L42.0217 46.997H42.7744L44.7769 51.625H43.9249ZM49.1228 51.625L47.8872 50.1013H46.9783V51.625H46.1688V47.0255H48.0576C48.2768 46.9997 48.4989 47.0199 48.7099 47.0849C48.9208 47.1498 49.1159 47.258 49.2829 47.4027C49.4498 47.5473 49.585 47.7252 49.6797 47.925C49.7744 48.1249 49.8265 48.3423 49.8329 48.5634C49.8439 48.8849 49.746 49.2006 49.5552 49.4592C49.3644 49.7178 49.0918 49.904 48.782 49.9874L50.1028 51.625H49.1228ZM49.8897 33.6825C49.3687 34.3995 48.6879 34.9847 47.9014 35.3913C46.5393 36.0868 45.0782 36.5671 43.5698 36.8153L42.7744 36.915C42.9307 39.0083 43.7828 40.0478 45.3451 40.0478C45.9303 40.0373 46.5065 39.9013 47.0351 39.6491C47.5411 39.4463 48.0185 39.1783 48.4553 38.8516L48.9524 38.4529L49.7477 39.5209C49.4334 39.8861 49.0757 40.2113 48.6825 40.4892C48.1429 40.888 47.6458 41.2155 47.1913 41.4861C45.8867 42.2043 44.419 42.5722 42.9307 42.5541C42.2394 42.5837 41.5507 42.451 40.9195 42.1667C40.2883 41.8824 39.732 41.4543 39.2949 40.9165C38.3436 39.6066 37.8766 38.0055 37.9741 36.3881C37.9096 35.1739 38.1 33.9597 38.533 32.824C38.966 31.6882 39.632 30.6562 40.4879 29.7949C41.2271 29.0334 42.1101 28.4272 43.0855 28.0116C44.0609 27.5959 45.109 27.3792 46.1688 27.3741C47.3217 27.3217 48.4583 27.6631 49.3927 28.3424C49.7957 28.6373 50.1213 29.026 50.3415 29.4749C50.5617 29.9239 50.6698 30.4197 50.6567 30.9199C50.7137 31.9005 50.4439 32.8724 49.8897 33.6825ZM54.6191 51.625L53.0426 49.6742L52.2615 50.5428V51.625H51.4946V47.0255H52.3041V49.432L54.5055 47.0255H55.4712L53.6391 49.0618L55.67 51.625H54.6191ZM58.5957 48.8625L59.178 48.9764C60.0443 49.1472 60.5982 49.5033 60.5982 50.2437C60.5982 50.9842 59.9023 51.6678 58.8372 51.6678C58.6024 51.6974 58.364 51.6793 58.1364 51.6145C57.9087 51.5498 57.6965 51.4396 57.5122 51.2908C57.3279 51.1419 57.1755 50.9574 57.064 50.7481C56.9524 50.5389 56.8841 50.3092 56.863 50.0729H57.6726C57.7214 50.3478 57.8742 50.5931 58.0991 50.7576C58.3241 50.9222 58.6038 50.9931 58.8798 50.9558C59.4336 50.9558 59.7745 50.7137 59.7745 50.3292C59.7745 49.9447 59.6182 49.8593 59.107 49.7596L58.3401 49.6172C57.4595 49.4463 57.0477 48.9906 57.0477 48.3213C57.0477 47.652 57.7294 46.8973 58.7661 46.8973C59.2002 46.8443 59.6378 46.9637 59.9854 47.2297C60.333 47.4958 60.5631 47.8875 60.6266 48.3213H59.8171C59.8032 48.2055 59.7662 48.0936 59.7083 47.9924C59.6503 47.8912 59.5727 47.8027 59.4799 47.7323C59.3871 47.6618 59.2811 47.6108 59.1682 47.5824C59.0554 47.5539 58.9379 47.5485 58.8229 47.5666C58.2691 47.5666 57.914 47.8087 57.914 48.2359C57.914 48.6631 58.127 48.8625 58.5957 48.8625ZM63.112 31.0196C62.7706 31.3574 62.3945 31.6581 61.99 31.9167C61.4947 32.2606 60.9338 32.4981 60.3426 32.6144C60.1294 32.3312 59.9394 32.0312 59.7745 31.7173C59.4194 31.105 59.1496 30.806 58.9791 30.806C58.4299 31.0206 57.9421 31.3679 57.5589 31.817C56.8116 34.7517 56.3034 37.7425 56.0393 40.7598C56.0204 41.1013 56.0204 41.4436 56.0393 41.7851C54.5306 42.187 52.9678 42.3456 51.4094 42.255H51.1821C51.1447 41.8524 51.1447 41.4472 51.1821 41.0446C51.3593 39.3168 51.6583 37.6037 52.0769 35.9182C52.4683 34.3463 52.7718 32.7536 52.9858 31.1477C52.9291 30.3062 52.6 29.5062 52.0485 28.8693L51.7502 28.4706V28.0434C53.6443 27.6388 55.5811 27.4714 57.5163 27.545C57.8135 28.3209 57.9488 29.1496 57.914 29.98C58.3462 29.3731 58.8628 28.8313 59.4478 28.3709C60.0938 27.7556 60.9433 27.4008 61.8338 27.3741C63.041 27.3741 63.6375 28.4136 63.6375 30.5069C63.4789 30.7027 63.3082 30.8882 63.1262 31.0623L63.112 31.0196Z" fill="#5D328C"/>
</svg>
