<svg width="291" height="257" viewBox="0 0 291 257" fill="none" xmlns="http://www.w3.org/2000/svg">
<path d="M149.807 214.357L57.7458 159.474L59.2445 52.3054L152.805 0.0189209L244.866 54.9013L243.368 162.07L149.807 214.357Z" fill="#FFFF01"/>
<path d="M21.0219 219.783L0.165527 207.35L0.505067 183.071L21.701 171.225L42.5574 183.659L42.2179 207.938L21.0219 219.783Z" fill="#FFFF01"/>
<path d="M148.314 255.679L153.389 252.787M147.526 243.03L184.645 221.876M146.749 230.374L215.891 190.971M145.968 217.736L247.143 160.077M145.18 205.087L278.399 129.166M144.403 192.431L290.338 109.263M143.622 179.794L287.367 97.8736M142.833 167.145L284.378 86.4786M142.057 154.489L281.389 75.0837M141.275 141.851L278.406 63.7003" stroke="#5D328C" stroke-width="2"/>
</svg>
