<svg width="406" height="394" viewBox="0 0 406 394" fill="none" xmlns="http://www.w3.org/2000/svg">
<path d="M263.256 0.478638L405.178 130.511L363.529 318.435L179.956 376.327L38.0342 246.295L79.6841 58.3709L263.256 0.478638Z" fill="#5D328C"/>
<path d="M94.0826 44.9161L90.0776 49.1678M98.5412 56.7798L69.2462 87.879M102.991 68.653L48.4239 126.581M107.44 80.5075L27.5917 165.273M111.898 92.371L6.76038 203.984M116.348 104.244L1.17499 226.511M120.797 116.099L7.35196 236.531M125.256 127.962L13.5476 246.55M129.705 139.835L19.7432 256.57M134.154 151.69L25.9291 266.58M138.613 163.554L32.1157 276.61M143.071 175.417L38.3113 286.629M147.511 187.281L44.4973 296.64M151.97 199.145L50.693 306.659M156.429 211.008L56.8886 316.679M160.868 222.873L63.0655 326.699M165.327 234.736L69.2611 336.719M169.786 246.6L75.4567 346.738M174.226 258.464L81.6427 356.749M178.684 270.327L87.8293 366.778M183.143 282.191L94.0249 376.798M187.583 294.055L100.211 386.808M192.041 305.919L110.186 392.815M196.5 317.782L126.273 392.335M200.949 329.637L142.341 391.854M205.399 341.51L158.428 391.374M209.857 353.374L174.514 390.893M214.306 365.228L190.582 390.413M218.756 377.101L206.669 389.933" stroke="#FFFF01" stroke-width="2"/>
</svg>
